<svg width="24" height="24" viewBox="0 0 24 24" fill="none" xmlns="http://www.w3.org/2000/svg">
<path d="M8.20117 16.2783C7.95703 16.0391 7.9668 15.624 8.19629 15.3945L11.1064 12.4795L8.19629 9.56934C7.9668 9.33984 7.96191 8.92969 8.20117 8.68555C8.44043 8.44141 8.85547 8.45117 9.08984 8.68066L12 11.5908L14.9053 8.68066C15.1445 8.44141 15.5498 8.44629 15.7939 8.68555C16.0381 8.92969 16.0381 9.33496 15.7988 9.57422L12.8936 12.4795L15.7988 15.3896C16.0381 15.6289 16.0332 16.0342 15.7939 16.2783C15.5547 16.5225 15.1445 16.5225 14.9053 16.2832L12 13.373L9.08984 16.2832C8.85547 16.5127 8.44531 16.5225 8.20117 16.2783Z" fill="white"/>
</svg>
