<svg width="25" height="25" viewBox="0 0 25 25" fill="none" xmlns="http://www.w3.org/2000/svg">
<path d="M6.50105 3.04205H18.5087C18.4423 2.22912 17.9491 1.78571 17.0386 1.78571H7.9617C7.06065 1.78571 6.55796 2.22912 6.50105 3.04205ZM4.56617 5.71179H20.4436C20.3108 4.83419 19.8555 4.33535 18.8501 4.33535H6.15961C5.15422 4.33535 4.69896 4.83419 4.56617 5.71179ZM5.68537 22.3214H19.3149C21.2878 22.3214 22.3216 21.3238 22.3216 19.4207V10.1182C22.3216 8.21524 21.2878 7.21756 19.3149 7.21756H5.68537C3.70306 7.21756 2.67871 8.206 2.67871 10.1182V19.4207C2.67871 21.3238 3.70306 22.3214 5.68537 22.3214Z" fill="#28AF6E"/>
</svg>
