<svg width="17" height="17" viewBox="0 0 17 17" fill="none" xmlns="http://www.w3.org/2000/svg">
<path d="M16.9976 13.2655C16.9964 13.2286 16.995 13.1914 16.9938 13.1542C16.9924 13.1169 16.991 13.0796 16.9897 13.042L16.9886 13.0139L16.988 12.9998L16.9879 12.9963L16.9875 12.9648L16.9874 12.9634L16.987 12.9575L16.9834 12.9109C16.9785 12.8486 16.9737 12.7861 16.9688 12.7236L16.9651 12.6762L16.9596 12.6149C16.9557 12.574 16.9518 12.5332 16.948 12.4925C16.944 12.4519 16.94 12.4113 16.936 12.3709C16.934 12.3507 16.9319 12.3305 16.9299 12.3104C16.9274 12.2917 16.925 12.2731 16.9225 12.2545C16.9021 12.107 16.8839 11.9621 16.8579 11.8228C16.8456 11.753 16.8343 11.6845 16.8216 11.6177C16.8077 11.551 16.7941 11.4858 16.7808 11.4224C16.7557 11.2953 16.7242 11.1767 16.6977 11.0671C16.6909 11.0397 16.6842 11.0128 16.6777 10.9867C16.6705 10.9606 16.6634 10.9352 16.6565 10.9104C16.6425 10.8609 16.6293 10.8139 16.6168 10.7698C16.6041 10.7258 16.5929 10.6844 16.5812 10.6465C16.5691 10.6087 16.558 10.574 16.548 10.5427C16.5332 10.4966 16.5207 10.4578 16.5108 10.4272C16.4963 10.3819 16.4484 10.3565 16.4027 10.3695L13.5286 11.1886C13.4848 11.201 13.4577 11.2447 13.466 11.2894C13.4691 11.3061 13.4727 11.3253 13.4767 11.3467C13.4808 11.3683 13.4853 11.3922 13.4903 11.4182C13.4949 11.4443 13.4986 11.4728 13.5033 11.503C13.5079 11.5332 13.5128 11.5654 13.518 11.5993C13.5205 11.6163 13.5235 11.6335 13.5258 11.6514C13.5279 11.6693 13.53 11.6876 13.5321 11.7063C13.5401 11.7812 13.5521 11.8615 13.5574 11.9476C13.5609 11.9904 13.5646 12.0344 13.5683 12.0793C13.5711 12.1244 13.5725 12.1705 13.5749 12.2172C13.5811 12.3105 13.5799 12.4077 13.5817 12.5056L13.5821 12.5421L13.5808 12.5744C13.5801 12.5959 13.5793 12.6175 13.5786 12.6391C13.578 12.6607 13.5775 12.6823 13.5769 12.7039L13.5762 12.7362L13.5742 12.7828C13.5716 12.8455 13.5689 12.9081 13.5662 12.9705L13.5642 13.0173L13.5639 13.0231L13.5639 13.0245C13.5639 13.0316 13.5633 12.9689 13.5635 12.9959L13.5633 12.9982L13.5624 13.0075L13.5607 13.0259C13.5585 13.0505 13.5563 13.0749 13.5541 13.0993C13.552 13.1237 13.5498 13.1479 13.5477 13.172C13.5449 13.196 13.542 13.2199 13.5392 13.2437C13.5331 13.2911 13.5293 13.3381 13.5218 13.3838C13.5151 13.4296 13.5086 13.4746 13.5023 13.5187C13.4946 13.5624 13.4872 13.6052 13.48 13.6469C13.4734 13.6886 13.4646 13.7288 13.4568 13.7676C13.4487 13.8064 13.4422 13.8441 13.4337 13.8798C13.4255 13.9156 13.4176 13.9498 13.41 13.9824C13.4063 13.9984 13.4027 14.0141 13.3992 14.0293C13.3956 14.0424 13.3921 14.0551 13.3887 14.0674C13.3867 14.0749 13.3848 14.0819 13.3828 14.0892H16.898C16.9451 14.0892 16.9843 14.0523 16.9861 14.0052C16.9862 14.0049 16.9862 14.0046 16.9862 14.0043C16.9891 13.9389 16.9921 13.8717 16.9952 13.8029C16.9965 13.7343 16.9978 13.6642 16.9992 13.5928C17.0012 13.5216 16.999 13.4491 16.9988 13.3759C16.9984 13.3393 16.998 13.3025 16.9976 13.2655Z" fill="white" fill-opacity="0.7"/>
<path d="M16.0836 9.57593C16.1308 9.55694 16.1523 9.50233 16.1306 9.45639C16.1209 9.43598 16.1096 9.4121 16.0968 9.3851C16.0847 9.35973 16.0714 9.33163 16.0569 9.30105C16.0381 9.26281 16.0178 9.22147 15.9961 9.17729C15.9743 9.13329 15.951 9.08646 15.9265 9.0371C15.914 9.01144 15.9018 8.99027 15.889 8.96619C15.8763 8.94264 15.8632 8.91855 15.8499 8.89395C15.8231 8.84484 15.7957 8.7935 15.7663 8.74093C15.7359 8.68893 15.7045 8.63513 15.6723 8.57984C15.6561 8.55226 15.6397 8.52429 15.6231 8.49602C15.6057 8.46818 15.5881 8.43999 15.5704 8.4115C15.5346 8.35476 15.4981 8.29676 15.461 8.23782C15.3827 8.1224 15.3047 8.00168 15.2177 7.8842C15.1963 7.85462 15.1748 7.82493 15.1533 7.79516L15.1209 7.75053L15.0872 7.70663C15.0421 7.64824 14.9968 7.58965 14.9515 7.53105C14.9055 7.47312 14.8578 7.41642 14.8111 7.35949C14.7874 7.33122 14.7646 7.30253 14.7404 7.2749C14.7163 7.24736 14.6922 7.2199 14.6682 7.19254C14.6441 7.16528 14.6202 7.13808 14.5964 7.11104C14.5727 7.0839 14.5488 7.05722 14.5242 7.03141C14.4755 6.9795 14.4273 6.92823 14.38 6.87779C14.3326 6.8275 14.2835 6.78024 14.2367 6.733C14.1897 6.68601 14.1439 6.63986 14.0972 6.597C14.051 6.55377 14.0061 6.51171 13.9626 6.47102C13.9194 6.43024 13.8752 6.3932 13.834 6.35651C13.7925 6.32022 13.7528 6.28545 13.7149 6.25238C13.6761 6.22041 13.6393 6.19009 13.6047 6.1616C13.5701 6.13322 13.5378 6.10667 13.5078 6.08212C13.4778 6.05765 13.4491 6.03645 13.4239 6.01667C13.387 5.98842 13.3559 5.96455 13.3312 5.94558C13.2936 5.91666 13.2399 5.92283 13.2096 5.95947L11.667 7.82671C11.6379 7.86192 11.6404 7.91339 11.6728 7.94553C11.6857 7.95827 11.7006 7.97301 11.7174 7.9896C11.7334 8.00572 11.7518 8.0228 11.7707 8.04273C11.7895 8.06265 11.8099 8.08421 11.8317 8.10722C11.8535 8.13013 11.8767 8.1545 11.9011 8.1802C11.9247 8.20672 11.9495 8.23465 11.9753 8.26377C12.0009 8.29315 12.0288 8.32232 12.0553 8.35485C12.0821 8.38706 12.1098 8.42034 12.1383 8.45458C12.1673 8.48818 12.195 8.52467 12.2236 8.56153C12.252 8.59865 12.2823 8.63524 12.3108 8.67448C12.3393 8.7136 12.3683 8.75336 12.3976 8.79363C12.4126 8.81344 12.4268 8.83411 12.4407 8.85508C12.4549 8.87591 12.4691 8.89681 12.4834 8.91782C12.4976 8.93872 12.512 8.95973 12.5264 8.98081C12.5407 9.00189 12.5539 9.02393 12.5677 9.0455C12.595 9.08902 12.6232 9.13189 12.65 9.17571C12.6761 9.21997 12.7022 9.26424 12.7282 9.30832L12.7477 9.34121L12.7659 9.37479C12.7782 9.39709 12.7903 9.41935 12.8024 9.44149C12.8524 9.52898 12.8946 9.61918 12.9388 9.70393C12.959 9.74738 12.9789 9.79008 12.9984 9.83191C13.0081 9.85274 13.0178 9.87336 13.0273 9.8937C13.0361 9.91443 13.0448 9.93488 13.0534 9.95508C13.0707 9.99528 13.0874 10.0344 13.1037 10.0722C13.1187 10.1106 13.1332 10.1476 13.1471 10.1832C13.1541 10.2009 13.1609 10.2183 13.1676 10.2353C13.1739 10.2518 13.1817 10.2698 13.1859 10.2836C13.1958 10.3125 13.2052 10.3401 13.214 10.3659C13.223 10.3916 13.2315 10.4155 13.2393 10.4378C13.2496 10.4684 13.259 10.4964 13.2675 10.5218C13.2769 10.5502 13.2853 10.5752 13.2924 10.5967C13.3085 10.6449 13.3619 10.6694 13.409 10.6505L16.0836 9.57593Z" fill="white" fill-opacity="0.7"/>
<path d="M8.22815 6.24077C8.25152 6.24395 8.27736 6.24748 8.30553 6.25132C8.33352 6.25619 8.36379 6.26147 8.39613 6.26711C8.42841 6.27265 8.46277 6.27854 8.49897 6.28477C8.53043 6.28999 8.56301 6.29758 8.59689 6.30467L9.57042 4.31331C9.52216 4.30578 9.47429 4.2983 9.42739 4.29098C9.39525 4.2862 9.36362 4.28071 9.3321 4.27677C9.30059 4.27296 9.26945 4.26918 9.23873 4.26546C9.17737 4.25818 9.11769 4.25107 9.05998 4.24422C9.00211 4.23926 8.94619 4.23447 8.89252 4.22987C8.83884 4.22575 8.78764 4.22033 8.73863 4.218C8.68971 4.21561 8.64329 4.21331 8.59968 4.21117C8.55611 4.20911 8.51534 4.20719 8.47768 4.20541C8.43997 4.2048 8.40533 4.20424 8.37403 4.20374C8.33001 4.2032 8.29265 4.20276 8.26269 4.2024C8.21518 4.20183 8.17587 4.23896 8.17359 4.28641L8.08482 6.13989C8.08264 6.18556 8.11558 6.22532 8.16087 6.23153C8.18016 6.23418 8.20265 6.23728 8.22815 6.24077Z" fill="white" fill-opacity="0.7"/>
<path d="M10.8447 7.26136C10.8709 7.28038 10.8957 7.29842 10.919 7.3154C10.9423 7.33212 10.9641 7.34776 10.9843 7.36223C10.9931 7.36825 11.0075 7.3792 11.0193 7.38797C11.0315 7.39704 11.0431 7.40568 11.054 7.41388C11.078 7.43175 11.0991 7.44754 11.1172 7.46105C11.158 7.49143 11.2158 7.48116 11.2437 7.43868L12.5147 5.50256C12.5426 5.46007 12.5291 5.40294 12.485 5.37765C12.4654 5.36641 12.4425 5.35328 12.4166 5.33841C12.4047 5.33157 12.3921 5.3244 12.379 5.31685C12.3646 5.30874 12.3497 5.30026 12.334 5.29142C12.2979 5.27148 12.2588 5.24996 12.217 5.22692C12.1752 5.20414 12.1307 5.17992 12.0838 5.15434C12.0391 5.13196 11.9922 5.10843 11.9431 5.08386C11.8939 5.05984 11.8437 5.03313 11.7899 5.00888C11.7363 4.98433 11.6809 4.95894 11.6239 4.93283C11.5674 4.90613 11.5077 4.88188 11.4471 4.85643C11.3863 4.83153 11.325 4.80429 11.2611 4.78026C11.2449 4.77412 11.2285 4.76791 11.2121 4.76172L10.6638 7.14166C10.6941 7.1607 10.7227 7.18089 10.7508 7.19911C10.7836 7.22081 10.8149 7.24159 10.8447 7.26136Z" fill="white" fill-opacity="0.7"/>
<path d="M6.52148 6.23103C6.54603 6.22779 6.57013 6.22378 6.5942 6.22124C6.61827 6.2188 6.64205 6.21639 6.6655 6.21399C6.71229 6.20914 6.7578 6.20442 6.80184 6.19984C6.846 6.19688 6.88868 6.19402 6.92964 6.19126C6.95007 6.18987 6.97008 6.18851 6.98964 6.18717C7.00915 6.18586 7.02869 6.1842 7.04544 6.18418C7.07995 6.18327 7.11272 6.18242 7.14348 6.18162C7.17415 6.18065 7.20282 6.17974 7.22938 6.1789C7.2621 6.17868 7.29217 6.17849 7.3193 6.17831C7.34918 6.17815 7.37559 6.178 7.39818 6.17788C7.449 6.17761 7.48894 6.13457 7.48561 6.08386L7.37119 4.33787C7.36784 4.28716 7.32264 4.24971 7.27223 4.25608C7.24981 4.25891 7.22363 4.26222 7.19398 4.26596C7.16649 4.26945 7.13605 4.27333 7.10291 4.27755C7.06376 4.28337 7.02142 4.28963 6.97616 4.29634C6.93105 4.30321 6.88302 4.31053 6.8324 4.31824C6.80649 4.32189 6.78263 4.32674 6.7576 4.33147C6.73264 4.33623 6.7071 4.34111 6.68103 4.34609C6.62897 4.35614 6.57477 4.36663 6.51862 4.37748C6.46291 4.39016 6.40529 4.4033 6.34607 4.41677C6.31653 4.42355 6.28657 4.43044 6.25626 4.43742C6.22598 4.44451 6.19562 4.45317 6.16482 4.46113C6.10335 4.47751 6.04059 4.49424 5.97675 4.51124C5.91354 4.5303 5.84928 4.54966 5.78425 4.56927C5.75183 4.57931 5.71906 4.58878 5.68649 4.5995C5.65407 4.61057 5.62141 4.62168 5.58866 4.63287C5.55597 4.64407 5.52315 4.65531 5.49024 4.6666C5.45732 4.6778 5.42434 4.68906 5.3918 4.70189C5.32658 4.72678 5.2611 4.75178 5.19562 4.77678C5.13043 4.8023 5.06632 4.83057 5.00206 4.85732C4.97003 4.87098 4.9379 4.88415 4.90625 4.89816C4.87481 4.91267 4.84347 4.92713 4.81225 4.94155C4.78109 4.95598 4.75005 4.97036 4.71918 4.98466C4.68831 4.99894 4.65757 5.01301 4.62768 5.02852C4.5677 5.0588 4.50845 5.08872 4.45018 5.11814C4.3919 5.14736 4.33636 5.17961 4.28119 5.20929C4.22627 5.23953 4.17226 5.26838 4.12132 5.29946C4.07008 5.32985 4.02025 5.35943 3.97204 5.38802C3.92369 5.41623 3.87884 5.44668 3.83489 5.47421C3.79125 5.50218 3.74943 5.529 3.70965 5.5545C3.67073 5.58122 3.63379 5.60656 3.59909 5.63037C3.56449 5.65421 3.5321 5.67651 3.50214 5.69714C3.47222 5.71777 3.44576 5.73822 3.42136 5.7559C3.38831 5.78031 3.36009 5.80114 3.33726 5.818C3.29913 5.84615 3.29018 5.89931 3.31684 5.93852L4.04185 7.00443C4.06765 7.04237 4.1181 7.05427 4.15805 7.03171C4.17647 7.02133 4.19823 7.00903 4.22305 6.99504C4.24468 6.98307 4.26809 6.96893 4.29452 6.95517C4.32093 6.94139 4.34949 6.92654 4.38 6.91065C4.41042 6.89474 4.44281 6.87781 4.47694 6.85997C4.51165 6.84333 4.54814 6.82583 4.58622 6.80758C4.62448 6.78975 4.66329 6.76933 4.70515 6.75153C4.74668 6.73329 4.78963 6.71445 4.83379 6.69507C4.87751 6.67494 4.92382 6.65735 4.97067 6.63856C5.01777 6.62031 5.06494 6.59966 5.11435 6.58221C5.16354 6.56448 5.21357 6.54646 5.2642 6.5282C5.2893 6.51867 5.31514 6.5106 5.34104 6.50233C5.36688 6.49401 5.39286 6.48565 5.41893 6.47726C5.44495 6.46885 5.47108 6.4604 5.49728 6.45192C5.52362 6.44392 5.55033 6.43676 5.57687 6.4291C5.63018 6.41436 5.68313 6.398 5.73681 6.38429C5.79053 6.371 5.84425 6.3577 5.89776 6.34448C5.92431 6.33741 5.95126 6.33188 5.97809 6.32635C6.00486 6.32071 6.03156 6.3151 6.05817 6.30949C6.08469 6.30386 6.11112 6.29826 6.13742 6.29267C6.16378 6.28741 6.19028 6.28335 6.21643 6.27864C6.26872 6.26957 6.32036 6.26059 6.37118 6.25178C6.42218 6.24475 6.47234 6.23781 6.52148 6.23103Z" fill="white" fill-opacity="0.7"/>
<path d="M1.57788 7.6092C1.55888 7.63607 1.5398 7.66308 1.52064 7.69019C1.50153 7.71728 1.48234 7.74448 1.46309 7.77177C1.44392 7.7991 1.42599 7.82744 1.40735 7.85532C1.37059 7.91146 1.33298 7.96716 1.29697 8.02393C1.26181 8.08117 1.22665 8.13842 1.19163 8.19545L1.1655 8.23814L1.1407 8.28154C1.12422 8.31039 1.10779 8.33918 1.09142 8.36783C1.02449 8.48151 0.966351 8.59772 0.907263 8.7081C0.879759 8.76438 0.852702 8.81972 0.826218 8.87391C0.813083 8.90097 0.800073 8.92777 0.787243 8.95422C0.775164 8.98103 0.763246 9.00753 0.751472 9.03369C0.728029 9.08591 0.705232 9.13673 0.683167 9.18587C0.662589 9.23563 0.64269 9.2837 0.623596 9.32983C0.604878 9.37611 0.585964 9.4199 0.56984 9.4624C0.553932 9.50493 0.538829 9.5453 0.524621 9.58322C0.510484 9.62111 0.49726 9.65656 0.485038 9.68934C0.473746 9.72244 0.463385 9.75285 0.454008 9.78032C0.44184 9.81643 0.431389 9.84742 0.422853 9.8728C0.407732 9.91764 0.430727 9.9663 0.474927 9.98324L1.14974 10.2419C1.19268 10.2584 1.24105 10.2392 1.2609 10.1977C1.27074 10.1771 1.2825 10.1525 1.29601 10.1243C1.30721 10.101 1.31959 10.0752 1.3331 10.0471C1.34745 10.0195 1.36297 9.98958 1.37956 9.9576C1.39609 9.92573 1.41366 9.89175 1.4322 9.85596C1.45089 9.82027 1.47239 9.78368 1.49374 9.74503C1.51536 9.70659 1.53789 9.66652 1.56121 9.62504C1.58578 9.58437 1.61117 9.54228 1.63729 9.49901C1.6503 9.47741 1.66349 9.45553 1.67684 9.43337C1.69089 9.41163 1.70512 9.38966 1.71948 9.36738C1.74822 9.323 1.77759 9.27769 1.80745 9.23155C1.87091 9.14172 1.93297 9.04711 2.0031 8.95587C2.02022 8.9328 2.03742 8.90966 2.05467 8.88645L2.08053 8.85161L2.10762 8.81754C2.1437 8.77211 2.17991 8.72653 2.21613 8.68095C2.25301 8.63593 2.29129 8.59207 2.32849 8.54783C2.34736 8.52587 2.36546 8.50347 2.38477 8.48212C2.4041 8.46081 2.42335 8.43955 2.44254 8.41838C2.46168 8.39723 2.48074 8.37617 2.49971 8.35519C2.5185 8.33411 2.53747 8.31341 2.55717 8.29356C2.59593 8.25343 2.63423 8.21377 2.67189 8.17474C2.70949 8.13579 2.74873 8.09964 2.78578 8.0631C2.8231 8.02683 2.85921 7.99104 2.8964 7.95823C2.93298 7.92495 2.96855 7.89258 3.00298 7.86124C3.03712 7.82973 3.07231 7.8016 3.1048 7.77336C3.13751 7.7455 3.16886 7.7188 3.19868 7.69341C3.22795 7.67024 3.25573 7.64826 3.28182 7.62758C3.30776 7.60692 3.33205 7.58758 3.3545 7.56969C3.36481 7.56117 3.37877 7.55097 3.39056 7.542C3.40266 7.53286 3.4142 7.52416 3.42515 7.51591C3.44901 7.49789 3.47007 7.482 3.48811 7.4684C3.52867 7.43778 3.53495 7.37941 3.50196 7.34076L2.73365 6.44067C2.70065 6.40202 2.64201 6.39906 2.60541 6.43432C2.58915 6.44999 2.57013 6.4683 2.54862 6.48904C2.53874 6.49854 2.52832 6.50858 2.51741 6.51908C2.5063 6.52987 2.49572 6.5397 2.48194 6.55378C2.4556 6.58035 2.42713 6.60911 2.39669 6.63982C2.36641 6.67054 2.33418 6.70324 2.3002 6.7377C2.26862 6.77192 2.23541 6.80789 2.20076 6.84541C2.16655 6.88322 2.12965 6.92132 2.09395 6.96309C2.05811 7.00464 2.02106 7.04761 1.98297 7.09175C1.9444 7.13538 1.90709 7.18225 1.86871 7.22979C1.83061 7.27759 1.79045 7.32528 1.75214 7.37581C1.71394 7.42635 1.67511 7.47772 1.63581 7.52976C1.61584 7.55555 1.59674 7.58218 1.57788 7.6092Z" fill="white" fill-opacity="0.7"/>
<path d="M0.181721 10.7649C0.177229 10.787 0.171968 10.8129 0.166009 10.8422C0.160551 10.8691 0.154503 10.8989 0.147918 10.9313C0.141458 10.9644 0.135141 11.0036 0.12809 11.0435C0.121147 11.0838 0.113774 11.1267 0.106008 11.172C0.10225 11.1945 0.0979556 11.2178 0.0943945 11.2413C0.0912272 11.2647 0.0880061 11.2885 0.0846956 11.3129C0.0720977 11.4105 0.0555094 11.5155 0.0459536 11.6276C0.0404062 11.6835 0.0347157 11.7409 0.0288999 11.7996C0.0241042 11.8583 0.020901 11.9185 0.0167673 11.9795C0.00710419 12.1014 0.00533262 12.2278 0.00130631 12.3556L0 12.4037L0.000232631 12.452C0.000411578 12.4842 0.000590525 12.5165 0.000769472 12.5489C0.000966314 12.5812 0.00116316 12.6136 0.0013421 12.646L0.00164631 12.6946L0.00350736 12.7433C0.00613788 12.808 0.0087684 12.8728 0.0113989 12.9372L0.0133852 12.9855L0.0139937 13.0011L0.0148526 13.0127L0.0165705 13.036C0.018861 13.067 0.0211336 13.0979 0.0234063 13.1287C0.0256789 13.1595 0.0279515 13.1901 0.0301884 13.2206C0.0332841 13.2524 0.0363441 13.2841 0.039422 13.3156C0.0425178 13.3471 0.0455957 13.3783 0.0486557 13.4094C0.0501946 13.4249 0.0517336 13.4403 0.0532725 13.4557C0.0551872 13.4709 0.057102 13.4859 0.0589988 13.501C0.066622 13.5609 0.0741198 13.6199 0.0814567 13.6776C0.0903145 13.7351 0.0989756 13.7913 0.107386 13.846C0.11526 13.9007 0.125406 13.9537 0.134729 14.0048C0.135499 14.0089 0.136268 14.013 0.13702 14.017C0.144804 14.0589 0.181202 14.0892 0.223737 14.0892H0.461576C0.512361 14.0892 0.55266 14.0464 0.549671 13.9957C0.548866 13.9822 0.548043 13.9685 0.54713 13.9547C0.54416 13.9054 0.540581 13.8546 0.539436 13.8021C0.537718 13.7497 0.535964 13.6958 0.534157 13.6408C0.533817 13.5859 0.533477 13.5297 0.533137 13.4726C0.533047 13.4583 0.532958 13.444 0.532868 13.4296C0.533173 13.4155 0.533495 13.4012 0.533817 13.3869C0.534443 13.3584 0.535069 13.3297 0.535714 13.3008C0.53634 13.272 0.536984 13.2429 0.537628 13.2138C0.53906 13.1832 0.540474 13.1525 0.541923 13.1217C0.543355 13.0908 0.544804 13.0599 0.546236 13.0288L0.547327 13.0055L0.547864 12.9938L0.547936 12.9924C0.547936 12.9887 0.548007 12.9958 0.548043 12.9946L0.548258 12.9918L0.548705 12.9861L0.55232 12.941C0.557116 12.8808 0.561929 12.8204 0.566761 12.7599L0.570447 12.7147L0.575655 12.6696C0.579126 12.6396 0.58258 12.6096 0.586033 12.5797C0.589469 12.5497 0.592905 12.5199 0.596323 12.4901L0.601423 12.4456L0.608026 12.4014C0.626136 12.2838 0.641525 12.1682 0.664072 12.0575C0.674648 12.002 0.684114 11.9474 0.694976 11.8943C0.706805 11.8414 0.718365 11.7896 0.729621 11.7392C0.75045 11.6382 0.777453 11.5444 0.799428 11.4574C0.805065 11.4357 0.810576 11.4144 0.815962 11.3937C0.821653 11.3732 0.827791 11.3539 0.833446 11.3347C0.844845 11.2965 0.855671 11.2603 0.865835 11.2263C0.876232 11.1919 0.884768 11.1612 0.894717 11.1304C0.90515 11.099 0.914705 11.0702 0.923366 11.0442C0.932779 11.0158 0.9411 10.9908 0.948222 10.9693C0.964238 10.9211 0.936269 10.8694 0.887165 10.8564L0.290932 10.6974C0.241811 10.6842 0.191849 10.7151 0.181721 10.7649Z" fill="white" fill-opacity="0.7"/>
<path d="M6.93103 13.8553C7.12501 13.9501 7.3305 13.9951 7.5328 13.9951C8.04062 13.9951 8.52864 13.7122 8.7667 13.2252C8.81254 13.1315 8.84803 13.028 8.87111 12.9305L10.2593 6.90509L10.788 4.6104L11.1156 3.1889C11.1537 3.02347 11.0221 2.91077 10.89 2.91077C10.8128 2.91077 10.7353 2.9494 10.6916 3.03868L10.0251 4.40195L9.04194 6.41306L6.3009 12.0197C5.968 12.7006 6.25013 13.5224 6.93103 13.8553ZM7.58369 11.9149C7.95517 11.9149 8.25632 12.2161 8.25632 12.5875C8.25632 12.959 7.95517 13.2602 7.58369 13.2602C7.21221 13.2602 6.91106 12.959 6.91106 12.5875C6.91106 12.216 7.21221 11.9149 7.58369 11.9149Z" fill="white"/>
</svg>
