<svg width="16" height="16" viewBox="0 0 16 16" fill="none" xmlns="http://www.w3.org/2000/svg">
<g clip-path="url(#clip0_46_320)">
<path d="M1.04845 3.50062C1.63046 4.85431 2.61302 6.19325 3.98794 6.77038C4.14489 6.83577 4.32309 6.88482 4.50619 6.92569C4.8724 6.37964 5.29256 5.93658 5.78466 5.57365C6.20807 5.26303 6.65114 5.01943 7.10725 4.82814C6.97646 4.73658 6.83915 4.65321 6.69526 4.578C6.12306 4.27882 5.50346 4.01561 4.90018 3.73277C5.46748 3.88645 6.11816 3.94367 6.66093 4.14149C6.99935 4.26576 7.31161 4.43742 7.60262 4.64178C8.47075 4.34585 9.3781 4.20362 10.2838 4.09573C9.54976 2.87612 7.98354 1.89683 6.80317 1.45378C5.57048 0.991099 4.1743 0.933879 2.80264 0.791662C1.96232 0.704997 1.04843 0.391119 0.379771 0.0249083C0.227728 -0.05847 0.0658762 0.0804938 0.118192 0.248885C0.446817 1.30009 0.613573 2.49027 1.04845 3.50062Z" fill="white" fill-opacity="0.7"/>
<path d="M15.5416 3.34041C13.995 4.18074 12.2212 4.28373 10.4833 4.48319C9.63486 4.58128 8.79452 4.70224 7.99506 4.94422C7.82177 4.99652 7.64849 5.05539 7.47844 5.12078C6.97327 5.3137 6.48608 5.5671 6.02669 5.90552C5.59508 6.22267 5.24195 6.5987 4.94441 7.01233C4.4703 7.6728 4.14006 8.43301 3.86867 9.22267C3.37331 10.6564 3.14606 12.1801 3.1902 13.6957C3.20818 14.3104 3.21799 14.9496 3.37004 15.5496C3.40437 15.682 3.43707 15.8504 3.54006 15.9485C3.67412 16.0776 3.91444 15.9452 3.86049 15.7572C3.4714 14.4313 3.71336 12.8815 4.25123 11.6145C4.8692 10.1578 6.06265 9.29131 7.52095 8.76327C7.90841 8.62267 8.30407 8.50005 8.70623 8.38398C8.7144 8.38073 8.72257 8.38073 8.73075 8.38073C8.81086 8.38073 8.84519 8.49842 8.76181 8.53604C8.2877 8.75021 7.81686 8.96601 7.36889 9.19979C5.17491 10.3442 4.21688 13.009 5.03921 13.009C5.10626 13.009 5.18472 12.9911 5.27463 12.9534C6.54329 12.4287 8.05063 12.4238 9.44517 12.1655C9.93563 12.0755 10.413 11.9529 10.861 11.7666C12.6397 11.0243 13.9116 9.57256 14.6686 7.82652C15.2326 6.52353 15.4517 4.98512 15.8784 3.63144C15.9339 3.45814 15.8113 3.30938 15.6609 3.30938C15.6233 3.30772 15.5825 3.31754 15.5416 3.34041Z" fill="white"/>
</g>
<defs>
<clipPath id="clip0_46_320">
<rect width="16" height="16" fill="white"/>
</clipPath>
</defs>
</svg>
