<svg width="25" height="25" viewBox="0 0 25 25" fill="none" xmlns="http://www.w3.org/2000/svg">
<path fill-rule="evenodd" clip-rule="evenodd" d="M8.78797 1.78571C9.23439 1.78571 9.59685 2.15061 9.59685 2.60112C9.59685 3.05056 9.23546 3.41547 8.78797 3.41547L7.05646 3.41654C5.61938 3.41868 4.45017 4.59686 4.45017 6.0447V8.07361C4.45017 8.52306 4.08665 8.88903 3.64022 8.88903C3.19379 8.88903 2.83133 8.52306 2.83133 8.07361V6.0447C2.83133 3.69904 4.72653 1.78892 7.0554 1.78678L8.7869 1.78571H8.78797ZM16.4122 1.78599H18.1054C20.4407 1.78599 22.3391 3.69719 22.3391 6.0482V8.0739C22.3391 8.52334 21.9777 8.88932 21.5302 8.88932C21.0838 8.88932 20.7213 8.52334 20.7213 8.0739V6.0482C20.7213 4.59608 19.5478 3.41468 18.1054 3.41468H16.4122C15.9658 3.41468 15.6033 3.05085 15.6033 2.60141C15.6033 2.1509 15.9658 1.78599 16.4122 1.78599ZM15.5215 5.86998H9.64986C8.30632 5.88389 7.22639 6.98931 7.23808 8.34299V9.70201C7.24127 9.86039 7.36775 9.98987 7.52507 9.99522H17.6441C17.8025 9.99094 17.929 9.86146 17.9343 9.70201V8.34299C17.9354 7.68915 17.6845 7.06101 17.2317 6.59337C16.7821 6.13002 16.1645 5.86998 15.5215 5.86998ZM1.70302 11.6521H23.4685C23.915 11.6521 24.2774 12.017 24.2774 12.4675C24.2774 12.917 23.915 13.2808 23.4685 13.2808H22.3397V17.1653C22.3397 19.5174 20.4403 21.4286 18.1061 21.4286H16.4128C15.9654 21.4286 15.6029 21.0636 15.6029 20.6131C15.6029 20.1637 15.9654 19.7988 16.4128 19.7988H18.1061C19.5485 19.7988 20.7219 18.6185 20.7219 17.1653V13.2808H17.9339V14.3627C17.9445 15.7164 16.8656 16.8228 15.521 16.8357H9.64945C8.30591 16.8228 7.22704 15.7164 7.23767 14.3627V13.2808H4.44962V17.1696C4.44962 18.6174 5.6199 19.7956 7.05804 19.7977L8.78848 19.7988C9.23491 19.7988 9.59736 20.1637 9.59736 20.6131C9.5963 21.0636 9.23491 21.4286 8.78741 21.4286L7.05591 21.4275C4.72704 21.4253 2.83078 19.5152 2.83078 17.1696V13.2808H1.70302C1.25659 13.2808 0.893066 12.917 0.893066 12.4675C0.893066 12.017 1.25659 11.6521 1.70302 11.6521Z" fill="white"/>
</svg>
